<?xml version="1.0" standalone="no"?>
<!DOCTYPE svg PUBLIC "-//W3C//DTD SVG 20010904//EN"
 "http://www.w3.org/TR/2001/REC-SVG-20010904/DTD/svg10.dtd">
<svg version="1.0" xmlns="http://www.w3.org/2000/svg"
 width="1024.000000pt" height="1024.000000pt" viewBox="0 0 1024.000000 1024.000000"
 preserveAspectRatio="xMidYMid meet">
<metadata>
Created by potrace 1.14, written by Peter Selinger 2001-2017
</metadata>
<g transform="translate(0.000000,1024.000000) scale(0.100000,-0.100000)"
fill="#000000" stroke="none">
<path d="M4890 9165 c-47 -7 -105 -18 -130 -25 -25 -7 -52 -13 -60 -15 -38 -8
-167 -59 -218 -87 -228 -124 -426 -344 -669 -747 -106 -173 -913 -1788 -1386
-2771 -35 -74 -109 -225 -162 -335 -54 -110 -119 -245 -145 -300 -26 -55 -80
-167 -119 -248 -39 -82 -71 -150 -71 -152 0 -1 -29 -63 -64 -136 -35 -74 -94
-201 -131 -284 -154 -343 -197 -439 -199 -450 -2 -5 -12 -30 -23 -55 -35 -79
-107 -299 -123 -374 -4 -22 -11 -52 -14 -66 -44 -183 -52 -493 -16 -630 5 -19
11 -51 14 -70 22 -146 127 -389 239 -555 297 -441 691 -703 1172 -781 129 -21
423 -26 530 -8 119 19 134 22 241 48 179 43 334 108 589 245 51 27 287 184
308 205 7 7 32 26 57 43 25 17 54 39 66 49 12 11 50 44 85 74 112 96 180 161
321 302 l138 137 137 -137 c140 -140 204 -199 327 -307 99 -86 102 -88 126
-105 13 -8 35 -24 49 -36 14 -11 49 -36 76 -54 28 -19 55 -39 61 -45 19 -16
164 -107 229 -143 205 -111 411 -195 572 -232 200 -47 293 -58 493 -56 102 1
190 5 195 8 6 3 35 9 66 12 89 10 198 38 309 77 77 27 85 31 180 79 47 24 95
48 107 54 13 6 23 14 23 19 0 4 7 7 15 7 8 0 15 4 15 8 0 5 10 13 23 19 34 16
185 141 253 209 180 183 362 455 420 629 2 6 15 44 29 85 25 72 37 119 49 185
3 17 8 41 11 55 26 130 21 443 -10 560 -2 8 -7 29 -10 45 -7 38 -29 125 -50
195 -9 30 -23 80 -31 110 -20 70 -75 212 -125 318 -21 46 -39 85 -39 87 0 4
-122 268 -197 425 -25 52 -60 127 -78 165 -18 39 -67 142 -110 230 -118 245
-129 270 -131 275 0 3 -21 48 -46 100 -25 52 -75 158 -111 235 -69 148 -130
280 -204 435 -52 108 -110 232 -158 335 -17 39 -53 113 -78 165 -25 52 -69
145 -97 205 -61 131 -363 734 -427 855 -25 47 -68 128 -96 180 -105 199 -244
450 -406 734 -50 88 -91 163 -91 168 0 4 -4 8 -10 8 -5 0 -10 4 -10 10 0 25
-177 297 -244 374 -204 238 -450 412 -624 443 -67 11 -531 10 -612 -2z m377
-521 c35 -3 64 -5 65 -5 2 1 37 -9 78 -22 222 -69 452 -329 647 -736 103 -215
302 -611 410 -821 215 -413 866 -1721 1048 -2105 205 -431 324 -684 405 -866
50 -112 111 -247 135 -299 23 -52 52 -115 63 -140 54 -120 181 -432 200 -490
100 -311 84 -591 -49 -878 -16 -35 -29 -65 -29 -68 0 -3 -25 -43 -56 -90 -50
-75 -165 -204 -234 -259 -171 -139 -446 -253 -675 -280 -65 -8 -207 -7 -264 1
-20 2 -49 7 -66 9 -53 7 -167 36 -229 57 -151 52 -391 175 -487 250 -20 15
-40 28 -44 28 -6 0 -81 55 -95 70 -3 3 -30 24 -60 47 -30 23 -68 54 -85 68
-16 15 -57 50 -90 78 -77 67 -385 378 -385 389 0 5 4 14 10 21 12 15 78 99 88
112 4 6 23 30 43 55 48 60 221 307 245 348 10 17 22 32 26 32 4 0 8 5 8 10 0
6 18 38 40 71 22 33 40 62 40 65 0 2 19 34 41 71 60 97 209 380 209 396 0 3
12 31 27 63 15 33 28 67 30 77 2 10 9 28 17 40 20 31 99 271 134 407 77 295
87 531 37 799 -34 179 -123 391 -223 530 -99 139 -267 288 -407 359 -111 57
-306 125 -393 138 -26 4 -56 8 -67 10 -94 18 -290 23 -442 11 -102 -9 -109
-10 -173 -27 -25 -7 -56 -14 -70 -16 -14 -3 -43 -12 -65 -20 -22 -9 -47 -17
-56 -19 -26 -5 -174 -77 -177 -86 -2 -5 -8 -9 -14 -9 -16 0 -138 -89 -197
-145 -107 -101 -221 -258 -291 -403 -31 -64 -61 -139 -65 -162 0 -3 -6 -21
-13 -41 -7 -20 -14 -45 -16 -55 -3 -10 -9 -41 -15 -67 -21 -91 -26 -152 -26
-322 0 -153 5 -239 19 -301 2 -12 7 -38 10 -59 17 -107 88 -345 145 -487 159
-397 448 -883 781 -1310 33 -43 60 -82 60 -87 0 -23 -419 -429 -535 -518 -27
-21 -59 -46 -70 -57 -44 -41 -291 -197 -392 -249 -166 -85 -350 -148 -473
-162 -30 -3 -68 -9 -85 -12 -16 -3 -86 -6 -154 -7 -326 -6 -606 106 -831 334
-41 41 -97 104 -123 140 -26 36 -53 72 -60 81 -21 27 -46 72 -76 134 -47 101
-60 131 -77 197 -74 277 -42 553 106 903 23 55 45 105 48 110 4 6 7 15 8 20 2
9 137 307 207 455 17 36 31 67 32 70 1 3 20 43 42 90 22 47 81 171 131 275 49
105 120 253 157 330 37 77 96 199 130 270 62 128 134 277 354 728 61 126 111
233 111 238 0 5 5 9 10 9 6 0 9 3 8 8 -2 4 52 118 120 255 67 136 122 250 122
253 0 3 9 18 19 32 10 15 19 31 19 35 1 24 686 1392 780 1557 36 63 68 117 71
120 4 3 15 21 25 41 11 21 32 51 48 69 15 18 28 36 28 41 0 11 211 175 276
214 64 39 123 53 249 62 49 3 91 7 93 8 3 3 88 -2 179 -11z m17 -2954 c21 -6
46 -13 55 -15 74 -15 220 -81 314 -142 162 -104 256 -233 313 -428 13 -44 17
-99 18 -205 1 -152 -3 -190 -34 -330 -41 -186 -83 -325 -132 -440 -32 -76 -35
-82 -89 -195 -28 -60 -50 -111 -48 -111 2 -1 -3 -10 -12 -20 -9 -11 -30 -44
-46 -74 -57 -105 -202 -333 -215 -338 -4 -2 -8 -8 -8 -13 0 -10 -39 -69 -52
-79 -3 -3 -23 -30 -44 -60 -21 -30 -42 -60 -48 -66 -6 -7 -37 -46 -70 -88 -32
-42 -62 -76 -66 -76 -14 0 -243 305 -356 475 -100 150 -305 515 -312 558 -1 4
-10 27 -21 52 -59 133 -139 428 -161 594 -18 130 -13 301 10 376 41 134 56
170 95 237 46 79 193 238 221 238 2 0 15 9 27 21 45 42 201 111 307 135 65 16
295 11 354 -6z"/>
</g>
</svg>
